<svg xmlns="http://www.w3.org/2000/svg" id="svg294" version="1.1" viewBox="0 0 400 225"><defs id="defs244"><style id="style242">.cls-2{fill:#34495e}</style></defs><path id="rect248" d="M118.96 51.79h169.92v122.69H118.96z" style="fill:#fff"/><path id="polygon250" d="m176.5 132.88 15.46-15.58 47.47-47.7L280 110.63l10 10.4v54.47H118v-22.88l39.01-39.49z" class="cls-2"/><circle id="circle252" cx="146.29" cy="78.5" r="18.08" class="cls-2"/><path id="path286" d="M289.21 52.08v123.17H118.62V52.08zm12.91-12.91H105.71v149h196.41z" style="fill:#97baf6"/><path id="rect290" d="M0 0h400v225H0z" style="fill:none"/><g id="g1438"><g id="g1166"><path id="polygon46-1-0" d="M327.114 97.208c-3.61.299-6.548 2.71-9.127 5.045-.502.407-.912 1.013-1.444 1.33-1.207.205-1.862 1.374-2.778 2.069-15.93 14.783-30.312 29.45-46.241 44.233.429.34-.853 1.298-.63 1.71-1.411 3.711-2.38 6.781-3.742 10.504-.17.83-.624 1.6-.88 2.415l-4.781 12.278c9.73-1.988 19.461-3.975 29.183-6.004 4.358-2.584 1.062-.649 4.684-3.323l44.285-41.01c.554-.677 1.442-1.237 2.108-1.886 2.354-2.107 4.67-4.514 5.694-7.568 1.03-3.545-.327-7.28-2.206-10.29-2.458-3.908-6.036-7.264-10.406-8.888-1.19-.414-2.455-.673-3.72-.615" class="st5" style="fill:#fff"/><g id="g1057" transform="translate(-127.988 -12.584)"><path id="polygon46-1" d="m288.4 107.8-7-8.6-44.5 41.3 6 9z" class="st5" style="fill:#757575" transform="translate(162.07 22.485)"/><path id="polygon48-2" d="m295.5 116.3-7.1-8.5-45.5 41.7 8 8.1z" class="st6" style="fill:#565656" transform="translate(162.07 22.485)"/><path id="path50-0" d="M397.27 178.285c1.2 1.4 2.3 2.9 3.2 4.4l12.504-2.6s-.203-3.5-5.603-9.7c-5.6-6.6-8.397-7.397-8.397-7.397l-4.703 12.197c1.1 1 2.1 2 3 3.1" class="st7" style="fill:#e29563"/><path id="path52-9" d="M400.47 182.685c-.9-1.6-2-3-3.2-4.4-.9-1.1-1.9-2.1-2.9-3.1l-3.7 9.5z" class="st8" style="fill:#494949"/><path id="path56-3" d="M466.57 128.385c.5-5.4-6.6-13.4-12-13.9-3.3-.3-8.5 5.4-8.5 5.4l14 16.5s6.2-4.7 6.5-8" class="st9" style="fill:#d66f6e"/></g></g></g></svg>